<svg fill="none" height="32" viewBox="0 0 32 32" width="32" xmlns="http://www.w3.org/2000/svg">
    <g clip-path="url(#clip0_144_63)">
        <path
            d="M27.2933 7.50666C27.8133 8.02666 27.8133 8.85333 27.2933 9.37333L12.1733 24.4933C11.6533 25.0133 10.8266 25.0133 10.3066 24.4933L4.70664 18.8933C4.18664 18.3733 4.18664 17.5467 4.70664 17.0267C5.22664 16.5067 6.05331 16.5067 6.57331 17.0267L11.24 21.6933L25.4266 7.50666C25.9466 6.98666 26.7733 6.98666 27.2933 7.50666ZM24.48 4.67999L11.24 17.92L7.51998 14.2C6.47998 13.16 4.78664 13.16 3.74664 14.2L1.87998 16.0667C0.839976 17.1067 0.839976 18.8 1.87998 19.84L9.34664 27.3067C10.3866 28.3467 12.08 28.3467 13.12 27.3067L30.12 10.32C31.16 9.27999 31.16 7.58666 30.12 6.54666L28.2533 4.67999C27.2 3.63999 25.52 3.63999 24.48 4.67999Z"
            fill="black" />
    </g>
    <defs>
        <clipPath id="clip0_144_63">
            <rect fill="white" height="32" width="32" />
        </clipPath>
    </defs>
</svg>
