<svg fill="none" height="32" viewBox="0 0 32 32" width="32" xmlns="http://www.w3.org/2000/svg">
    <g clip-path="url(#clip0_57_313)">
        <path
            d="M25.9067 17.3066C25.96 16.88 26 16.4533 26 16C26 15.5466 25.96 15.12 25.9067 14.6933L28.72 12.4933C28.9733 12.2933 29.04 11.9333 28.88 11.64L26.2133 7.02663C26.0933 6.81329 25.8667 6.69329 25.6267 6.69329C25.5467 6.69329 25.4667 6.70663 25.4 6.73329L22.08 8.06663C21.3867 7.53329 20.64 7.09329 19.8267 6.75996L19.32 3.22663C19.28 2.90663 19 2.66663 18.6667 2.66663H13.3333C13 2.66663 12.72 2.90663 12.68 3.22663L12.1733 6.75996C11.36 7.09329 10.6133 7.54663 9.92 8.06663L6.6 6.73329C6.52 6.70663 6.44 6.69329 6.36 6.69329C6.13333 6.69329 5.90667 6.81329 5.78667 7.02663L3.12 11.64C2.94667 11.9333 3.02667 12.2933 3.28 12.4933L6.09333 14.6933C6.04 15.12 6 15.56 6 16C6 16.44 6.04 16.88 6.09333 17.3066L3.28 19.5066C3.02667 19.7066 2.96 20.0666 3.12 20.36L5.78667 24.9733C5.90667 25.1866 6.13333 25.3066 6.37333 25.3066C6.45333 25.3066 6.53333 25.2933 6.6 25.2666L9.92 23.9333C10.6133 24.4666 11.36 24.9066 12.1733 25.24L12.68 28.7733C12.72 29.0933 13 29.3333 13.3333 29.3333H18.6667C19 29.3333 19.28 29.0933 19.32 28.7733L19.8267 25.24C20.64 24.9066 21.3867 24.4533 22.08 23.9333L25.4 25.2666C25.48 25.2933 25.56 25.3066 25.64 25.3066C25.8667 25.3066 26.0933 25.1866 26.2133 24.9733L28.88 20.36C29.04 20.0666 28.9733 19.7066 28.72 19.5066L25.9067 17.3066ZM23.2667 15.0266C23.32 15.44 23.3333 15.72 23.3333 16C23.3333 16.28 23.3067 16.5733 23.2667 16.9733L23.08 18.48L24.2667 19.4133L25.7067 20.5333L24.7733 22.1466L23.08 21.4666L21.6933 20.9066L20.4933 21.8133C19.92 22.24 19.3733 22.56 18.8267 22.7866L17.4133 23.36L17.2 24.8666L16.9333 26.6666H15.0667L14.8133 24.8666L14.6 23.36L13.1867 22.7866C12.6133 22.5466 12.08 22.24 11.5467 21.84L10.3333 20.9066L8.92 21.48L7.22667 22.16L6.29333 20.5466L7.73333 19.4266L8.92 18.4933L8.73333 16.9866C8.69333 16.5733 8.66667 16.2666 8.66667 16C8.66667 15.7333 8.69333 15.4266 8.73333 15.0266L8.92 13.52L7.73333 12.5866L6.29333 11.4666L7.22667 9.85329L8.92 10.5333L10.3067 11.0933L11.5067 10.1866C12.08 9.75996 12.6267 9.43996 13.1733 9.21329L14.5867 8.63996L14.8 7.13329L15.0667 5.33329H16.92L17.1733 7.13329L17.3867 8.63996L18.8 9.21329C19.3733 9.45329 19.9067 9.75996 20.44 10.16L21.6533 11.0933L23.0667 10.52L24.76 9.83996L25.6933 11.4533L24.2667 12.5866L23.08 13.52L23.2667 15.0266ZM16 10.6666C13.0533 10.6666 10.6667 13.0533 10.6667 16C10.6667 18.9466 13.0533 21.3333 16 21.3333C18.9467 21.3333 21.3333 18.9466 21.3333 16C21.3333 13.0533 18.9467 10.6666 16 10.6666ZM16 18.6666C14.5333 18.6666 13.3333 17.4666 13.3333 16C13.3333 14.5333 14.5333 13.3333 16 13.3333C17.4667 13.3333 18.6667 14.5333 18.6667 16C18.6667 17.4666 17.4667 18.6666 16 18.6666Z"
            fill="black" />
    </g>
    <defs>
        <clipPath id="clip0_57_313">
            <rect fill="white" height="32" width="32" />
        </clipPath>
    </defs>
</svg>
