<svg fill="none" height="32" viewBox="0 0 32 32" width="32" xmlns="http://www.w3.org/2000/svg">
    <g clip-path="url(#clip0_8_51)">
        <path
            d="M11.0533 7.61334L4.94666 13.72C4.42665 14.24 4.42665 15.0933 4.94666 15.6133C5.46665 16.1333 6.31999 16.1333 6.83999 15.6133L10.6667 11.7733L10.6667 25.3333C10.6667 26.0667 11.2667 26.6667 12 26.6667L25.3333 26.6667C26.0667 26.6667 26.6667 26.0667 26.6667 25.3333C26.6667 24.6 26.0667 24 25.3333 24H13.3333L13.3333 11.7733L17.16 15.6133C17.68 16.1333 18.5333 16.1333 19.0533 15.6133C19.5733 15.0933 19.5733 14.24 19.0533 13.72L12.9467 7.61334C12.4267 7.09334 11.5733 7.09334 11.0533 7.61334Z"
            fill="black" />
    </g>
    <defs>
        <clipPath id="clip0_8_51">
            <rect fill="white" height="32" transform="matrix(0 -1 -1 0 32 32)" width="32" />
        </clipPath>
    </defs>
</svg>
